<?xml version="1.0" standalone="no"?>
<!DOCTYPE svg PUBLIC "-//W3C//DTD SVG 20010904//EN"
 "http://www.w3.org/TR/2001/REC-SVG-20010904/DTD/svg10.dtd">
<svg version="1.0" xmlns="http://www.w3.org/2000/svg"
 width="392.000000pt" height="392.000000pt" viewBox="0 0 392.000000 392.000000"
 preserveAspectRatio="xMidYMid meet">

<g transform="translate(0.000000,392.000000) scale(0.100000,-0.100000)"
fill="#000000" stroke="none">
<path d="M2875 2734 c-128 -19 -305 -93 -384 -162 l-44 -38 40 -60 c47 -70 97
-173 113 -235 6 -24 13 -50 15 -57 3 -8 25 9 59 45 64 70 137 110 227 124 192
31 371 -81 429 -268 25 -81 25 -140 2 -218 -33 -108 -101 -189 -202 -241 -51
-27 -63 -29 -170 -29 -102 0 -120 3 -162 24 -61 31 -113 74 -148 122 l-27 39
-18 -63 c-20 -72 -82 -201 -127 -263 -37 -52 -35 -57 62 -120 235 -152 504
-169 757 -48 182 87 333 263 393 457 32 104 45 296 23 357 -3 8 -22 -33 -42
-91 -51 -147 -95 -203 -205 -259 -33 -17 -67 -36 -75 -44 -9 -7 -26 -17 -39
-21 -17 -5 -24 -1 -31 17 -11 28 10 48 51 48 38 0 119 42 169 87 47 42 85 113
124 232 33 101 30 141 -19 238 -127 253 -374 414 -654 427 -48 3 -100 2 -117
0z"/>
</g>
</svg>
